#define img_width 64
#define img_height 64
static char img_bits[] = {
  0x00, 0x00, 0x00, 0x00, 0x20, 0x00, 0x00, 0x00, 0x00, 0x00, 0x00, 0x00, 
  0xFC, 0x01, 0x00, 0x00, 0x00, 0x00, 0x00, 0x00, 0xFC, 0x03, 0x00, 0x00, 
  0x00, 0x00, 0x00, 0x00, 0x9E, 0x07, 0x00, 0x00, 0x00, 0x80, 0x07, 0x00, 
  0x07, 0x27, 0x00, 0x00, 0x00, 0xC0, 0x1F, 0x00, 0x07, 0xFF, 0x00, 0x00, 
  0x00, 0xE0, 0x3F, 0x00, 0x07, 0xFF, 0x01, 0x00, 0x00, 0xF0, 0x38, 0x00, 
  0x07, 0xCF, 0x03, 0x00, 0x00, 0x70, 0x70, 0x00, 0x03, 0x87, 0x07, 0x00, 
  0x00, 0x70, 0x70, 0x80, 0x03, 0x07, 0x03, 0x00, 0x00, 0x7F, 0x70, 0x80, 
  0x03, 0x03, 0x03, 0x00, 0xC0, 0x7F, 0xE0, 0x80, 0x83, 0x03, 0x03, 0x00, 
  0xC0, 0x7F, 0xE0, 0x80, 0x83, 0x83, 0x03, 0x00, 0xE0, 0xF0, 0xE0, 0xC0, 
  0x81, 0x83, 0x03, 0x00, 0xE0, 0xE0, 0xC0, 0xC0, 0x81, 0x83, 0x03, 0x00, 
  0xE0, 0xE0, 0xC0, 0xC1, 0xC1, 0x81, 0x03, 0x00, 0xE0, 0xC0, 0xC1, 0xC1, 
  0xC1, 0xC1, 0x01, 0x00, 0xC0, 0xC0, 0x81, 0xC3, 0xC0, 0x81, 0x01, 0x00, 
  0xC0, 0xC1, 0x81, 0xE3, 0xC0, 0xC1, 0x01, 0x00, 0xC0, 0x81, 0x83, 0xE3, 
  0xC0, 0xC0, 0x01, 0x00, 0x80, 0x81, 0x03, 0xE3, 0xC0, 0xC0, 0x01, 0x00, 
  0x80, 0x83, 0x03, 0xE7, 0xE0, 0xC0, 0x00, 0x00, 0x80, 0x03, 0x07, 0x77, 
  0xE0, 0xE0, 0x00, 0x00, 0x80, 0x03, 0x07, 0x77, 0xE0, 0xE0, 0x00, 0x00, 
  0x00, 0x07, 0x07, 0x7E, 0xE0, 0xE0, 0x00, 0x00, 0x00, 0x07, 0x0F, 0x7E, 
  0x60, 0xE0, 0x00, 0x00, 0x00, 0x07, 0x0E, 0x3E, 0x00, 0xE0, 0x00, 0x00, 
  0x00, 0x0E, 0x0E, 0x3C, 0x00, 0x70, 0x00, 0x00, 0x00, 0x0E, 0x0C, 0x18, 
  0x00, 0x70, 0x78, 0x00, 0x00, 0x0E, 0x1C, 0x00, 0x00, 0x70, 0xFC, 0x01, 
  0x00, 0x1C, 0x0C, 0x00, 0x00, 0x70, 0xFE, 0x03, 0x00, 0x1C, 0x00, 0x00, 
  0x00, 0x70, 0x8F, 0x07, 0x00, 0x1C, 0x00, 0x00, 0x00, 0xF0, 0x03, 0x07, 
  0x00, 0x18, 0x00, 0x00, 0x00, 0xF8, 0x03, 0x07, 0x00, 0x38, 0x00, 0x00, 
  0x00, 0xF8, 0x01, 0x07, 0x00, 0x38, 0x00, 0x00, 0x00, 0xF8, 0x80, 0x03, 
  0x00, 0x38, 0x00, 0x00, 0x00, 0x38, 0x80, 0x03, 0x00, 0x38, 0x00, 0x00, 
  0x00, 0x38, 0xC0, 0x01, 0x00, 0x18, 0x00, 0x00, 0x00, 0x00, 0xC0, 0x01, 
  0x00, 0x38, 0x00, 0x00, 0x00, 0x00, 0xE0, 0x00, 0x00, 0x38, 0x00, 0x00, 
  0x00, 0x00, 0xE0, 0x00, 0x00, 0x38, 0x00, 0x00, 0x00, 0x00, 0x70, 0x00, 
  0x00, 0x18, 0x00, 0x00, 0x00, 0x00, 0x70, 0x00, 0x00, 0x38, 0x00, 0x00, 
  0x00, 0x00, 0x38, 0x00, 0x00, 0x18, 0x00, 0x00, 0x00, 0x00, 0x38, 0x00, 
  0x00, 0x38, 0x00, 0x00, 0x00, 0x00, 0x1C, 0x00, 0x00, 0x38, 0x00, 0x00, 
  0x00, 0x00, 0x1C, 0x00, 0x00, 0x38, 0x00, 0x00, 0x00, 0x00, 0x0E, 0x00, 
  0x00, 0x38, 0x00, 0x00, 0x00, 0x00, 0x0E, 0x00, 0x00, 0x38, 0x00, 0x00, 
  0x00, 0x00, 0x07, 0x00, 0x00, 0x38, 0x00, 0x00, 0x00, 0x00, 0x07, 0x00, 
  0x00, 0x38, 0x00, 0x00, 0x00, 0x80, 0x07, 0x00, 0x00, 0x70, 0x00, 0x00, 
  0x00, 0x80, 0x03, 0x00, 0x00, 0x70, 0x00, 0x00, 0x00, 0xC0, 0x03, 0x00, 
  0x00, 0xE0, 0x00, 0x00, 0x00, 0xC0, 0x01, 0x00, 0x00, 0xE0, 0x01, 0x00, 
  0x00, 0xE0, 0x00, 0x00, 0x00, 0xC0, 0x03, 0x00, 0x00, 0xF0, 0x00, 0x00, 
  0x00, 0x80, 0x07, 0x00, 0x00, 0x70, 0x00, 0x00, 0x00, 0x00, 0x0F, 0x00, 
  0x00, 0x38, 0x00, 0x00, 0x00, 0x00, 0x3E, 0x00, 0x00, 0x3E, 0x00, 0x00, 
  0x00, 0x00, 0xFC, 0x00, 0x00, 0x1F, 0x00, 0x00, 0x00, 0x00, 0xF0, 0xFF, 
  0xFF, 0x07, 0x00, 0x00, 0x00, 0x00, 0xE0, 0xFF, 0xFF, 0x03, 0x00, 0x00, 
  0x00, 0x00, 0x00, 0xDB, 0xB2, 0x00, 0x00, 0x00, };
